# xmcd
#
# Track frame offsets: 
#        150
#        10385
#        21243
#        31843
#        42900
#        54445
#        67280
#        79168
#        91073
#        100965
#        111768
#        125083
#        135743
#        149145
#        162348
#        172833
#        184788
#        195478
#        207108
#        218895
#        230688
#        239513
#        252875
#        265183
#        278190
#        290160
#        301798
#
# Disc length: 4178 seconds
#
# Revision: 0
# Processed by: cddbd v1.5.2PL0 Copyright (c) Steve Scherf et al.
# Submitted via: ExactAudioCopy v0.95b3
#
DISCID=9210501b
DTITLE=The Drifters  - Rockin' and Driftin' The Drifters Box [CD2
DYEAR=1900
DGENRE=
TTITLE0=There Goes My Baby
TTITLE1=Oh My Love
TTITLE2=(If You Cry) True Love, True Love
TTITLE3=Dance With Me
TTITLE4=This Magic Moment
TTITLE5=Lonely Winds
TTITLE6=Save The Last Dance For Me
TTITLE7=Nobody But Me
TTITLE8=I Count The Tears
TTITLE9=Sometimes I Wonder
TTITLE10=Spanish Harlem (Ben E. King)
TTITLE11=Young Boy Blues (Ben E. King)
TTITLE12=Stand By Me (Ben E. King)
TTITLE13=Room Full Of Tears
TTITLE14=Please Stay
TTITLE15=Sweets For My Sweet
TTITLE16=Some Kind Of Wonderful
TTITLE17=Loneliness Or Happiness
TTITLE18=Mexican Divorce
TTITLE19=When My Little Girl Is Smiling
TTITLE20=Lover Please (Clyde McPhatter)
TTITLE21=Don't Play That Song (You Lied) (Ben E. King)
TTITLE22=Stranger On The Shore
TTITLE23=Another Night With The Boys
TTITLE24=Up On The Roof
TTITLE25=I (Who Have Nothing) (Ben E. King)
TTITLE26=Let The Music Play
EXTD=
EXTT0=
EXTT1=
EXTT2=
EXTT3=
EXTT4=
EXTT5=
EXTT6=
EXTT7=
EXTT8=
EXTT9=
EXTT10=
EXTT11=
EXTT12=
EXTT13=
EXTT14=
EXTT15=
EXTT16=
EXTT17=
EXTT18=
EXTT19=
EXTT20=
EXTT21=
EXTT22=
EXTT23=
EXTT24=
EXTT25=
EXTT26=
PLAYORDER=
